<svg id="Layer_1" data-name="Layer 1" xmlns="http://www.w3.org/2000/svg" xmlns:xlink="http://www.w3.org/1999/xlink" viewBox="0 0 841.89 595.28"><defs><style>.cls-1{font-size:71.34px;fill:#5d9c23;font-family:AntsyPants, AntsyPants;}.cls-2{letter-spacing:-0.13em;}.cls-3{letter-spacing:-0.01em;}.cls-4{opacity:0.28;fill:url(#linear-gradient);}</style><linearGradient id="linear-gradient" x1="398.93" y1="330.33" x2="331.33" y2="181.94" gradientTransform="translate(137.31 -128.41) rotate(24.47)" gradientUnits="userSpaceOnUse"><stop offset="0" stop-color="#ff7300"/><stop offset="0.13" stop-color="#f97c01"/><stop offset="0.34" stop-color="#ea9602"/><stop offset="0.4" stop-color="#e59e03"/><stop offset="0.87" stop-color="#e5c500"/><stop offset="0.99" stop-color="#bf6f00"/></linearGradient></defs><title>Artboard 1</title><text class="cls-1" transform="translate(249.31 242.78) rotate(-0.02) scale(1.09 1)"><tspan class="cls-2">P</tspan><tspan x="58" y="0">lant</tspan></text><text class="cls-1" transform="translate(222.89 305.7) rotate(-0.02)">bak<tspan class="cls-3" x="166.66" y="0">e</tspan><tspan x="211.1" y="0">t</tspan></text><path class="cls-4" d="M206.07,252.89c.93-21.46,16.77-41.06,40-48.91a42.91,42.91,0,0,1,16-14.89,43.64,43.64,0,0,1,28.08-4.23,231.65,231.65,0,0,1,170.71,13.28c15.3-11.5,31.12-15.37,39-9.22,4.4,3.44,5.77,9.6,7.5,17.33a70.84,70.84,0,0,1,1,25.13c5.95,6.36,13,16.1,12.8,27.77-.76,39.9-86.4,78.08-159.09,78.35-46.44.18-83.71-15.14-107-27.58-20.25,4.52-35.63-.17-38.33-8.19-.47-1.39-1.45-5.53,3.12-12.49C216.45,285.56,205.24,271.93,206.07,252.89Z"/></svg>